<svg width="512" height="512"
    xmlns="http://www.w3.org/2000/svg">

    <g>
        <title>Layer 1</title>
        <path id="svg_1" d="m-10.22,442.41l532.45,-372.82" stroke-width="13" stroke="#000" fill="none"/>
        <circle id="svg_2" fill="#ff0000" r="35" cy="181.96" cx="362"/>
        <path id="svg_3" d="m362,154.964c14.887,0 27,12.113 27,27c0,14.888 -12.113,27.001 -27,27.001c-14.889,0 -27,-12.113 -27,-27.001c0,-14.887 12.111,-27 27,-27m0,-13c-22.092,0 -40,17.91 -40,40c0,22.091 17.908,40.001 40,40.001s40,-17.91 40,-40.001c0,-22.09 -17.908,-40 -40,-40z"/>
        <circle id="svg_4" fill="#ff0000" r="35" cy="330.3" cx="150"/>
        <path id="svg_5" d="m150,303.301c14.888,0 27,12.113 27,27c0,14.888 -12.112,27.001 -27,27.001s-27,-12.113 -27,-27.001c0,-14.887 12.112,-27 27,-27m0,-13c-22.091,0 -40,17.91 -40,40c0,22.091 17.909,40.001 40,40.001c22.092,0 40,-17.91 40,-40.001c0,-22.09 -17.908,-40 -40,-40z"/>
    </g>
</svg>